<svg id="logo" xmlns="http://www.w3.org/2000/svg" viewBox="0 0 342.37 359.97"><defs><style>.cls-1,.cls-3{fill:none;stroke:#444242;stroke-linejoin:bevel;}.cls-1{stroke-width:2.83px;}.cls-2{opacity:0.5;}.cls-3{stroke-width:1.42px;}</style></defs><title>logo</title><path class="cls-1" d="M82.44,313.27,170.84.39,126.64,354l-58-112.1C55,215.48,17,216.27,4.47,243.2h0q-.34.72-.64,1.45C-3,261.32,5.32,280.41,21.91,287.47Z"/><path class="cls-1" d="M259.93,313.27,171.53.39,215.73,354l58-112.1c13.65-26.39,51.66-25.61,64.21,1.33h0q.34.72.64,1.45c6.88,16.66-1.49,35.75-18.08,42.82Z"/><g class="cls-2"><path class="cls-3" d="M86.12,320.62,170.85,1.72,128.49,359.64,72.93,252.19c-13.08-25.3-49.52-24.55-61.54,1.27h0q-.32.69-.61,1.39c-6.59,16,1.43,34.27,17.33,41Z"/><path class="cls-3" d="M256.24,320.62,171.51,1.72l42.37,357.92,55.56-107.45c13.08-25.3,49.52-24.55,61.54,1.27h0q.32.69.61,1.39c6.59,16-1.43,34.27-17.33,41Z"/></g></svg>