<?xml version="1.0" encoding="utf-8"?>
<!-- Generator: Adobe Illustrator 22.0.1, SVG Export Plug-In . SVG Version: 6.00 Build 0)  -->
<svg version="1.1" id="logo" xmlns="http://www.w3.org/2000/svg" xmlns:xlink="http://www.w3.org/1999/xlink" x="0px" y="0px"
	 viewBox="0 0 360 360" style="enable-background:new 0 0 360 360;" xml:space="preserve">
<style type="text/css">
	.st0{fill:none;stroke:#6B5612;stroke-width:2.83;stroke-linejoin:bevel;}
	.st1{opacity:0.5;}
	.st2{fill:none;stroke:#D4AF37;stroke-width:1.42;stroke-linejoin:bevel;}
</style>
<title>logo</title>
<path class="st0" d="M91.2,313.3L179.6,0.4L135.4,354l-58-112.1c-13.6-26.4-51.6-25.6-64.1,1.3l0,0c-0.2,0.5-0.4,1-0.6,1.4
	c-6.8,16.7,1.5,35.8,18.1,42.8L91.2,313.3z"/>
<path class="st0" d="M268.7,313.3L180.3,0.4L224.5,354l58-112.1c13.6-26.4,51.7-25.6,64.2,1.3l0,0c0.2,0.5,0.4,1,0.6,1.4
	c6.9,16.7-1.5,35.8-18.1,42.8L268.7,313.3z"/>
<g class="st1">
	<path class="st2" d="M94.9,320.6L179.7,1.7l-42.4,357.9L81.7,252.2c-13.1-25.3-49.5-24.6-61.5,1.3l0,0c-0.2,0.5-0.4,0.9-0.6,1.4
		c-6.6,16,1.4,34.3,17.3,41L94.9,320.6z"/>
	<path class="st2" d="M265,320.6L180.3,1.7l42.4,357.9l55.6-107.4c13.1-25.3,49.5-24.6,61.5,1.3l0,0c0.2,0.5,0.4,0.9,0.6,1.4
		c6.6,16-1.4,34.3-17.3,41L265,320.6z"/>
</g>
</svg>
