<svg id="Capa_1" enable-background="new 0 0 512 512" height="512" viewBox="0 0 512 512" width="512" xmlns="http://www.w3.org/2000/svg"><g><g><path d="m512 204.61v38.82l-256 191.31-.11.08-255.89-191.39v-38.82l70.85-54.5h370.3z" fill="#ffc271"/></g><path d="m512 204.61v38.82l-256 191.31v-284.63h185.15z" fill="#ffa273"/><g><path d="m447 0v318.33l-63.33 32.86-127.67 81.4-.11-.07-108.22-72.38-82.67-50.47v-309.67z" fill="#f0f3f7"/></g><path d="m447 0v318.33l-63 37.337-128 76.923-.11-.07v-432.52z" fill="#dddcea"/><g fill="#fff"><path d="m191 244.67h130v30h-130z"/><path d="m226 304.67h60v30h-60z"/></g><g fill="#f0f3f7"><path d="m255.89 304.67h30.11v30h-30.11z"/><path d="m255.89 244.67h65.11v30h-65.11z"/></g><g><path d="m512 273.43v238.57h-512v-268.57l255.89 161.39.23.15z" fill="#ffe26f"/></g><path d="m326.98 145.23-70.98 70.98-.11-.11-70.87-70.87c-18.82-18.81-18.82-49.43 0-68.25 9.12-9.12 21.24-14.14 34.13-14.14s25.01 5.02 34.13 14.14l2.61 2.61.11.11 2.72-2.72c9.12-9.12 21.24-14.14 34.13-14.14s25.01 5.02 34.13 14.14c18.82 18.82 18.82 49.44 0 68.25z" fill="#ff668e"/><path d="m326.98 145.23-70.98 70.98-.11-.11v-136.51l.11.11 2.72-2.72c9.12-9.12 21.24-14.14 34.13-14.14s25.01 5.02 34.13 14.14c18.82 18.82 18.82 49.44 0 68.25z" fill="#e04496"/><path d="m512 243.43v268.57h-256.11v-107.18l.23.15z" fill="#ffc271"/></g></svg>